<svg xmlns="http://www.w3.org/2000/svg" viewBox="0 0 16 16" width="64" height="64" shape-rendering="crispEdges"><rect x="5" y="2" width="1" height="1" fill="#241a12"/><rect x="6" y="2" width="1" height="1" fill="#241a12"/><rect x="7" y="2" width="1" height="1" fill="#241a12"/><rect x="8" y="2" width="1" height="1" fill="#241a12"/><rect x="9" y="2" width="1" height="1" fill="#241a12"/><rect x="3" y="3" width="1" height="1" fill="#241a12"/><rect x="4" y="3" width="1" height="1" fill="#241a12"/><rect x="5" y="3" width="1" height="1" fill="#f09a7a"/><rect x="6" y="3" width="1" height="1" fill="#f09a7a"/><rect x="7" y="3" width="1" height="1" fill="#f09a7a"/><rect x="8" y="3" width="1" height="1" fill="#ffe0d0"/><rect x="9" y="3" width="1" height="1" fill="#f09a7a"/><rect x="10" y="3" width="1" height="1" fill="#241a12"/><rect x="11" y="3" width="1" height="1" fill="#241a12"/><rect x="2" y="4" width="1" height="1" fill="#241a12"/><rect x="3" y="4" width="1" height="1" fill="#f09a7a"/><rect x="4" y="4" width="1" height="1" fill="#f09a7a"/><rect x="5" y="4" width="1" height="1" fill="#f09a7a"/><rect x="6" y="4" width="1" height="1" fill="#ffe0d0"/><rect x="7" y="4" width="1" height="1" fill="#ffe0d0"/><rect x="8" y="4" width="1" height="1" fill="#f09a7a"/><rect x="9" y="4" width="1" height="1" fill="#f09a7a"/><rect x="10" y="4" width="1" height="1" fill="#f09a7a"/><rect x="11" y="4" width="1" height="1" fill="#f09a7a"/><rect x="12" y="4" width="1" height="1" fill="#241a12"/><rect x="1" y="5" width="1" height="1" fill="#241a12"/><rect x="2" y="5" width="1" height="1" fill="#f09a7a"/><rect x="3" y="5" width="1" height="1" fill="#f09a7a"/><rect x="4" y="5" width="1" height="1" fill="#f09a7a"/><rect x="5" y="5" width="1" height="1" fill="#f09a7a"/><rect x="6" y="5" width="1" height="1" fill="#f09a7a"/><rect x="7" y="5" width="1" height="1" fill="#f09a7a"/><rect x="8" y="5" width="1" height="1" fill="#f09a7a"/><rect x="9" y="5" width="1" height="1" fill="#f09a7a"/><rect x="10" y="5" width="1" height="1" fill="#f09a7a"/><rect x="11" y="5" width="1" height="1" fill="#f09a7a"/><rect x="12" y="5" width="1" height="1" fill="#f09a7a"/><rect x="13" y="5" width="1" height="1" fill="#241a12"/><rect x="1" y="6" width="1" height="1" fill="#241a12"/><rect x="2" y="6" width="1" height="1" fill="#f09a7a"/><rect x="3" y="6" width="1" height="1" fill="#b05a44"/><rect x="4" y="6" width="1" height="1" fill="#f09a7a"/><rect x="5" y="6" width="1" height="1" fill="#f09a7a"/><rect x="6" y="6" width="1" height="1" fill="#f09a7a"/><rect x="7" y="6" width="1" height="1" fill="#f09a7a"/><rect x="8" y="6" width="1" height="1" fill="#f09a7a"/><rect x="9" y="6" width="1" height="1" fill="#f09a7a"/><rect x="10" y="6" width="1" height="1" fill="#f09a7a"/><rect x="11" y="6" width="1" height="1" fill="#f09a7a"/><rect x="12" y="6" width="1" height="1" fill="#f09a7a"/><rect x="13" y="6" width="1" height="1" fill="#241a12"/><rect x="1" y="7" width="1" height="1" fill="#241a12"/><rect x="2" y="7" width="1" height="1" fill="#f09a7a"/><rect x="3" y="7" width="1" height="1" fill="#b05a44"/><rect x="4" y="7" width="1" height="1" fill="#b05a44"/><rect x="5" y="7" width="1" height="1" fill="#f09a7a"/><rect x="6" y="7" width="1" height="1" fill="#f09a7a"/><rect x="7" y="7" width="1" height="1" fill="#f09a7a"/><rect x="8" y="7" width="1" height="1" fill="#f09a7a"/><rect x="9" y="7" width="1" height="1" fill="#f09a7a"/><rect x="10" y="7" width="1" height="1" fill="#f09a7a"/><rect x="11" y="7" width="1" height="1" fill="#f09a7a"/><rect x="12" y="7" width="1" height="1" fill="#b05a44"/><rect x="13" y="7" width="1" height="1" fill="#241a12"/><rect x="2" y="8" width="1" height="1" fill="#241a12"/><rect x="3" y="8" width="1" height="1" fill="#f09a7a"/><rect x="4" y="8" width="1" height="1" fill="#b05a44"/><rect x="5" y="8" width="1" height="1" fill="#b05a44"/><rect x="6" y="8" width="1" height="1" fill="#f09a7a"/><rect x="7" y="8" width="1" height="1" fill="#f09a7a"/><rect x="8" y="8" width="1" height="1" fill="#f09a7a"/><rect x="9" y="8" width="1" height="1" fill="#f09a7a"/><rect x="10" y="8" width="1" height="1" fill="#f09a7a"/><rect x="11" y="8" width="1" height="1" fill="#b05a44"/><rect x="12" y="8" width="1" height="1" fill="#b05a44"/><rect x="13" y="8" width="1" height="1" fill="#241a12"/><rect x="3" y="9" width="1" height="1" fill="#241a12"/><rect x="4" y="9" width="1" height="1" fill="#241a12"/><rect x="5" y="9" width="1" height="1" fill="#b05a44"/><rect x="6" y="9" width="1" height="1" fill="#b05a44"/><rect x="7" y="9" width="1" height="1" fill="#b05a44"/><rect x="8" y="9" width="1" height="1" fill="#b05a44"/><rect x="9" y="9" width="1" height="1" fill="#b05a44"/><rect x="10" y="9" width="1" height="1" fill="#b05a44"/><rect x="11" y="9" width="1" height="1" fill="#b05a44"/><rect x="12" y="9" width="1" height="1" fill="#9ad0e8"/><rect x="13" y="9" width="1" height="1" fill="#241a12"/><rect x="14" y="9" width="1" height="1" fill="#241a12"/><rect x="5" y="10" width="1" height="1" fill="#241a12"/><rect x="6" y="10" width="1" height="1" fill="#241a12"/><rect x="7" y="10" width="1" height="1" fill="#241a12"/><rect x="8" y="10" width="1" height="1" fill="#241a12"/><rect x="9" y="10" width="1" height="1" fill="#241a12"/><rect x="10" y="10" width="1" height="1" fill="#241a12"/><rect x="11" y="10" width="1" height="1" fill="#241a12"/><rect x="12" y="10" width="1" height="1" fill="#9ad0e8"/><rect x="13" y="10" width="1" height="1" fill="#9ad0e8"/><rect x="14" y="10" width="1" height="1" fill="#9ad0e8"/><rect x="15" y="10" width="1" height="1" fill="#241a12"/><rect x="12" y="11" width="1" height="1" fill="#241a12"/><rect x="13" y="11" width="1" height="1" fill="#9ad0e8"/><rect x="14" y="11" width="1" height="1" fill="#9ad0e8"/><rect x="15" y="11" width="1" height="1" fill="#241a12"/><rect x="11" y="12" width="1" height="1" fill="#241a12"/><rect x="12" y="12" width="1" height="1" fill="#9ad0e8"/><rect x="13" y="12" width="1" height="1" fill="#9ad0e8"/><rect x="14" y="12" width="1" height="1" fill="#241a12"/><rect x="11" y="13" width="1" height="1" fill="#241a12"/><rect x="12" y="13" width="1" height="1" fill="#241a12"/><rect x="13" y="13" width="1" height="1" fill="#241a12"/></svg>
